PathFileType  4	(X/Y/Z) C:\MyRepositories_Xander\mocap-processing\Testing_HJC_Function\TRCs_w_HJCs
DataRate	CameraRate	NumFrames	NumMarkers	Units	OrigDataRate	OrigDataStartFrame	OrigNumFrames
  240.0		  240.0		    4		    151		 mm	  240.0	      477	    544
Frame#	Time	LFHD			RFHD			LBHD			C7			T10			CLAV			STRN			RBAK			LSHO			LUPA			LELB			LFRM			LWRA			LWRB			LFIN			RSHO			RUPA			RELB			RFRM			RWRA			RWRB			RFIN			LASI			RASI			LPSI			RPSI			SACR			LTHI			LKNE			LMKN			LTIB			LANK			LMED			LHEE			LTOE			RTHI			RKNE			RMKN			RTIB			RANK			RMED			RHEE			RTOE			PELO			PELA			PELL			PELP			LFEO			LFEA			LFEL			LFEP			LTIO			LTIA			LTIL			LTIP			LFOO			LFOA			LFOL			LFOP			LTOO			LTOA			LTOL			LTOP			RFEO			RFEA			RFEL			RFEP			RTIO			RTIA			RTIL			RTIP			RFOO			RFOA			RFOL			RFOP			RTOO			RTOA			RTOL			RTOP			HEDO			HEDA			HEDL			HEDP			LCLO			LCLA			LCLL			LCLP			RCLO			RCLA			RCLL			RCLP			TRXO			TRXA			TRXL			TRXP			LHUO			LHUA			LHUL			LHUP			LRAO			LRAA			LRAL			LRAP			LHNO			LHNA			LHNL			LHNP			RHUO			RHUA			RHUL			RHUP			RRAO			RRAA			RRAL			RRAP			RHNO			RHNA			RHNL			RHNP			RBHD			*120			*121			*122			LHipAngles			LKneeAngles			LAbsAnkleAngle			LAnkleAngles			RHipAngles			RKneeAngles			RAnkleAngles			RAbsAnkleAngle			LPelvisAngles			RPelvisAngles			LFootProgressAngles			RFootProgressAngles			RNeckAngles			LNeckAngles			RSpineAngles			LSpineAngles			LShoulderAngles			LElbowAngles			LWristAngles			RShoulderAngles			RElbowAngles			RWristAngles			RThoraxAngles			LThoraxAngles			RHeadAngles			LHeadAngles			RHJC			LHJC			
		X1	Y1	Z1	X2	Y2	Z2	X3	Y3	Z3	X4	Y4	Z4	X5	Y5	Z5	X6	Y6	Z6	X7	Y7	Z7	X8	Y8	Z8	X9	Y9	Z9	X10	Y10	Z10	X11	Y11	Z11	X12	Y12	Z12	X13	Y13	Z13	X14	Y14	Z14	X15	Y15	Z15	X16	Y16	Z16	X17	Y17	Z17	X18	Y18	Z18	X19	Y19	Z19	X20	Y20	Z20	X21	Y21	Z21	X22	Y22	Z22	X23	Y23	Z23	X24	Y24	Z24	X25	Y25	Z25	X26	Y26	Z26	X27	Y27	Z27	X28	Y28	Z28	X29	Y29	Z29	X30	Y30	Z30	X31	Y31	Z31	X32	Y32	Z32	X33	Y33	Z33	X34	Y34	Z34	X35	Y35	Z35	X36	Y36	Z36	X37	Y37	Z37	X38	Y38	Z38	X39	Y39	Z39	X40	Y40	Z40	X41	Y41	Z41	X42	Y42	Z42	X43	Y43	Z43	X44	Y44	Z44	X45	Y45	Z45	X46	Y46	Z46	X47	Y47	Z47	X48	Y48	Z48	X49	Y49	Z49	X50	Y50	Z50	X51	Y51	Z51	X52	Y52	Z52	X53	Y53	Z53	X54	Y54	Z54	X55	Y55	Z55	X56	Y56	Z56	X57	Y57	Z57	X58	Y58	Z58	X59	Y59	Z59	X60	Y60	Z60	X61	Y61	Z61	X62	Y62	Z62	X63	Y63	Z63	X64	Y64	Z64	X65	Y65	Z65	X66	Y66	Z66	X67	Y67	Z67	X68	Y68	Z68	X69	Y69	Z69	X70	Y70	Z70	X71	Y71	Z71	X72	Y72	Z72	X73	Y73	Z73	X74	Y74	Z74	X75	Y75	Z75	X76	Y76	Z76	X77	Y77	Z77	X78	Y78	Z78	X79	Y79	Z79	X80	Y80	Z80	X81	Y81	Z81	X82	Y82	Z82	X83	Y83	Z83	X84	Y84	Z84	X85	Y85	Z85	X86	Y86	Z86	X87	Y87	Z87	X88	Y88	Z88	X89	Y89	Z89	X90	Y90	Z90	X91	Y91	Z91	X92	Y92	Z92	X93	Y93	Z93	X94	Y94	Z94	X95	Y95	Z95	X96	Y96	Z96	X97	Y97	Z97	X98	Y98	Z98	X99	Y99	Z99	X100	Y100	Z100	X101	Y101	Z101	X102	Y102	Z102	X103	Y103	Z103	X104	Y104	Z104	X105	Y105	Z105	X106	Y106	Z106	X107	Y107	Z107	X108	Y108	Z108	X109	Y109	Z109	X110	Y110	Z110	X111	Y111	Z111	X112	Y112	Z112	X113	Y113	Z113	X114	Y114	Z114	X115	Y115	Z115	X116	Y116	Z116	X117	Y117	Z117	X118	Y118	Z118	X119	Y119	Z119	X120	Y120	Z120	X121	Y121	Z121	X122	Y122	Z122	X123	Y123	Z123	X124	Y124	Z124	X125	Y125	Z125	X126	Y126	Z126	X127	Y127	Z127	X128	Y128	Z128	X129	Y129	Z129	X130	Y130	Z130	X131	Y131	Z131	X132	Y132	Z132	X133	Y133	Z133	X134	Y134	Z134	X135	Y135	Z135	X136	Y136	Z136	X137	Y137	Z137	X138	Y138	Z138	X139	Y139	Z139	X140	Y140	Z140	X141	Y141	Z141	X142	Y142	Z142	X143	Y143	Z143	X144	Y144	Z144	X145	Y145	Z145	X146	Y146	Z146	X147	Y147	Z147	X148	Y148	Z148	X149	Y149	Z149	X150	Y150	Z150	X151	Y151	Z151	

477	1.98333	-568.296	1651.695	220.961	-422.636	1660.020	220.501	-516.468	1539.666	341.071	-489.034	1423.260	353.101	-480.955	1215.336	394.349	-487.048	1367.771	209.379	-477.308	1150.989	161.223	-401.065	1354.613	389.870	-649.971	1420.491	311.834	-740.037	1270.530	309.010	-820.884	1203.536	288.263	-909.990	1137.886	282.950	-1009.936	1098.512	276.365	-982.093	1052.389	254.478	-1033.321	1021.649	287.724	-325.175	1419.573	338.195	-255.894	1265.767	343.626	-206.629	1172.978	338.834	-113.729	1092.066	339.284	-18.817	1041.929	337.646	-54.854	1012.032	338.267	-2.165	982.708	373.466	-608.003	950.185	195.223	-350.058	933.080	214.214	-543.791	991.950	381.980	-428.851	982.407	388.048	-490.042	967.826	398.693	-701.353	663.487	279.544	-679.630	494.771	326.665	-550.512	469.661	334.626	-724.275	266.536	351.636	-685.017	95.615	374.797	-605.031	99.865	347.477	-645.250	86.468	425.524	-662.919	71.271	219.374	-262.303	640.939	297.038	-262.472	493.932	308.738	-393.831	462.595	318.845	-185.157	267.821	355.366	-193.183	95.172	357.214	-277.089	97.458	349.748	-230.832	84.959	424.634	-216.685	65.604	217.694	-488.823	857.329	261.804	-477.226	832.990	82.361	-669.396	869.303	248.509	-475.199	1036.746	238.349	-614.922	488.123	324.100	-636.745	421.005	-52.496	-995.771	527.249	339.196	-579.110	863.316	255.156	-649.055	97.526	362.514	-767.477	73.407	12.043	-998.884	139.438	477.834	-616.935	465.081	326.366	-675.641	86.078	221.889	-652.435	285.241	219.900	-874.076	109.369	238.897	-658.517	86.078	421.677	-681.349	86.078	155.293	-673.613	152.466	154.630	-747.494	93.842	160.963	-675.641	86.078	221.889	-324.951	482.126	313.978	-346.852	431.498	-61.209	-696.318	411.952	345.125	-398.537	851.342	268.451	-232.015	96.230	353.759	-199.611	65.527	-19.781	-596.423	5.975	329.566	-319.658	460.148	316.244	-206.440	86.654	212.239	-254.623	282.074	208.945	-401.405	38.359	198.911	-220.169	86.654	413.070	-201.864	86.654	145.295	-217.925	151.794	144.197	-266.852	70.556	140.853	-206.440	86.654	212.239	NaN	NaN	NaN	NaN	NaN	NaN	NaN	NaN	NaN	NaN	NaN	NaN	-653.481	1364.304	302.908	-739.302	1395.694	139.061	-641.931	1549.236	332.288	-487.054	1367.657	216.378	-319.748	1364.661	328.643	-209.154	1404.080	164.878	-300.221	1167.073	294.270	-487.054	1367.657	216.378	-487.054	1367.657	216.378	-486.873	1370.828	21.848	-292.670	1375.807	216.692	-478.900	1173.298	213.217	-803.826	1201.604	247.586	-664.009	1128.530	82.520	-903.741	1344.168	99.843	-653.481	1364.304	302.908	-997.885	1077.387	258.960	-929.741	955.981	95.727	-1091.766	1211.341	120.139	-817.411	1192.909	248.383	-1084.143	971.033	281.018	-1024.724	948.408	404.289	-993.219	884.922	221.386	-997.885	1077.387	258.960	-215.970	1176.009	294.151	-373.449	1114.565	156.404	-325.423	1085.543	459.635	-319.748	1364.661	328.643	-36.056	1025.898	331.085	-127.751	881.677	191.595	-146.785	934.376	498.500	-203.376	1165.502	296.736	40.226	928.151	379.522	10.582	966.458	503.511	145.211	1009.991	379.338	-36.056	1025.898	331.085	NaN	NaN	NaN	-485.864	1382.256	362.307	NaN	NaN	NaN	-466.491	1534.590	327.985	0.871	-6.727	3.014	-0.646	-15.881	4.748	0.000	0.000	-5.149	0.006	13.322	-5.292	15.435	7.220	-1.443	2.347	-8.681	0.977	-0.008	-0.207	-4.796	0.000	0.000	-4.796	-4.306	3.675	-7.448	4.306	-3.675	-7.448	6.670	-4.899	90.000	13.882	-3.911	90.000	NaN	NaN	NaN	NaN	NaN	NaN	6.675	-3.269	8.420	-6.675	3.269	8.420	-44.998	-137.559	-13.298	0.000	0.000	-22.236	-18.031	114.630	6.969	-26.337	-129.271	-8.308	0.000	-0.000	-27.892	-17.046	132.996	0.706	-2.402	-0.053	0.932	2.402	0.053	0.932	NaN	NaN	NaN	NaN	NaN	NaN	-396.580	861.027	283.217	-566.835	875.164	274.230
478	1.98750	-568.119	1651.684	220.964	-422.613	1659.942	220.408	-516.167	1539.500	341.057	-489.029	1423.251	353.030	-481.135	1215.313	394.313	-486.871	1367.733	209.292	-477.036	1150.519	161.142	-401.172	1354.513	389.915	-650.071	1420.435	311.566	-739.886	1270.443	309.166	-820.867	1203.461	288.883	-910.036	1137.938	283.897	-1009.967	1098.617	277.414	-982.312	1052.344	255.779	-1033.945	1021.882	289.142	-325.093	1419.522	338.365	-255.979	1265.552	343.817	-206.579	1172.660	338.755	-113.815	1091.655	339.431	-18.998	1041.774	338.180	-55.056	1011.791	338.700	-2.339	982.159	373.689	-608.021	950.277	195.099	-350.025	933.039	214.162	-543.742	991.876	381.831	-428.939	982.349	388.040	-490.119	967.838	398.640	-701.257	663.345	279.341	-679.671	494.748	326.465	-550.453	469.897	334.940	-724.388	266.641	351.567	-685.008	95.615	374.785	-605.121	99.569	347.143	-645.221	86.466	425.508	-662.889	71.241	219.371	-262.212	640.911	297.096	-262.500	493.909	308.752	-393.686	462.411	318.655	-185.140	267.752	355.337	-193.261	94.968	357.152	-277.045	97.446	349.737	-230.699	84.963	424.582	-216.699	65.588	217.724	-488.873	857.351	261.701	-477.239	833.032	82.259	-669.436	869.416	248.359	-475.155	1036.766	238.275	-614.957	488.117	323.976	-636.326	420.948	-52.710	-995.907	527.153	338.626	-579.154	863.384	255.030	-649.089	97.392	362.356	-769.042	73.482	12.262	-998.525	139.396	479.216	-616.970	465.075	326.240	-675.677	85.950	221.732	-652.405	285.105	219.737	-874.105	109.307	238.739	-658.554	85.950	421.520	-681.385	85.950	155.136	-673.628	152.335	154.471	-747.528	93.736	160.805	-675.677	85.950	221.732	-324.983	482.088	313.905	-346.366	431.551	-61.345	-696.397	411.821	344.532	-398.592	851.319	268.372	-232.092	96.117	353.716	-199.939	65.318	-19.904	-596.600	5.922	329.781	-319.694	460.109	316.172	-206.615	86.537	212.178	-254.759	281.967	208.920	-401.600	38.283	198.982	-220.208	86.537	413.018	-202.085	86.537	145.232	-218.132	151.680	144.146	-267.079	70.452	140.833	-206.615	86.537	212.178	NaN	NaN	NaN	NaN	NaN	NaN	NaN	NaN	NaN	NaN	NaN	NaN	-653.560	1364.247	302.638	-739.205	1395.637	138.548	-642.070	1549.313	332.044	-486.890	1367.619	216.291	-319.667	1364.607	328.831	-208.794	1403.980	165.140	-300.132	1166.924	294.514	-486.890	1367.619	216.291	-486.890	1367.619	216.291	-486.378	1370.784	21.654	-292.395	1375.719	216.934	-478.780	1173.150	213.150	-803.754	1201.253	248.245	-663.444	1126.620	84.455	-902.944	1342.487	98.918	-653.560	1364.247	302.638	-998.005	1077.390	260.126	-929.472	954.384	98.263	-1091.250	1210.158	119.751	-817.352	1192.583	249.076	-1085.222	971.448	282.661	-1025.960	948.991	406.443	-994.560	884.212	223.429	-998.005	1077.390	260.126	-215.505	1175.993	294.008	-371.787	1115.504	154.170	-326.699	1084.322	457.930	-319.667	1364.607	328.831	-36.224	1025.698	331.571	-126.527	882.680	190.335	-148.485	933.148	497.066	-202.955	1165.472	296.638	39.992	927.449	379.408	10.480	965.098	503.753	145.207	1009.179	379.634	-36.224	1025.698	331.571	NaN	NaN	NaN	-485.969	1382.222	362.282	-470.437	1537.017	338.682	NaN	NaN	NaN	0.838	-6.668	3.019	-0.640	-16.195	4.754	0.000	0.000	-5.143	0.006	13.565	-5.291	15.468	7.152	-1.439	2.334	-8.560	0.978	-0.008	-0.211	-4.809	0.000	0.000	-4.809	-4.336	3.687	-7.439	4.336	-3.687	-7.439	6.689	-4.899	90.000	13.870	-3.872	90.000	NaN	NaN	NaN	NaN	NaN	NaN	6.676	-3.187	8.415	-6.676	3.187	8.415	-44.922	-137.110	-13.001	-0.000	-0.000	-22.276	-17.753	114.363	6.886	-26.433	-129.878	-8.437	0.000	0.000	-27.876	-16.735	133.460	0.841	-2.388	-0.151	0.925	2.388	0.151	0.925	NaN	NaN	NaN	NaN	NaN	NaN	-396.651	861.021	283.224	-566.938	875.153	274.014
479	1.99167	-567.936	1651.686	220.992	-422.289	1659.933	220.282	-516.032	1539.708	341.059	-489.116	1423.128	352.952	-481.232	1215.230	394.201	-486.705	1367.695	209.201	-476.967	1150.808	161.119	-401.327	1354.434	389.961	-650.036	1420.306	311.286	-739.672	1270.326	309.284	-820.792	1203.428	289.422	-910.096	1138.027	284.874	-1010.256	1098.736	278.634	-982.515	1052.353	257.311	-1034.421	1022.239	290.602	-325.176	1419.455	338.539	-256.073	1265.530	344.139	-206.744	1172.732	339.287	-114.039	1091.630	339.960	-19.042	1041.412	338.539	-55.278	1011.595	339.138	-2.462	981.639	373.943	-607.738	950.037	194.800	-349.863	933.010	214.262	-543.861	991.889	381.753	-428.953	982.278	387.973	-490.246	967.880	398.619	-701.372	663.356	279.145	-679.620	494.757	326.303	-550.656	469.650	334.061	-724.372	266.642	351.476	-684.980	95.604	374.764	-605.138	99.543	347.171	-645.256	86.455	425.520	-662.859	71.066	219.263	-262.253	640.696	296.861	-262.542	493.926	308.671	-393.755	462.418	318.574	-185.103	267.739	355.377	-193.216	95.029	357.209	-277.045	97.421	349.766	-230.744	84.875	424.600	-216.750	65.684	217.735	-488.676	857.259	261.659	-476.751	832.794	82.255	-669.227	869.180	248.032	-475.052	1036.663	238.100	-614.910	488.094	323.801	-636.383	420.933	-52.756	-995.716	527.303	338.523	-578.951	863.219	254.846	-649.056	97.377	362.349	-768.874	73.303	12.208	-998.550	139.434	479.053	-616.924	465.053	326.074	-675.596	85.936	221.715	-652.295	285.088	219.727	-874.027	109.322	238.651	-658.545	85.936	421.509	-681.280	85.936	155.117	-673.513	152.320	154.454	-747.424	93.732	160.762	-675.596	85.936	221.715	-325.014	482.178	314.109	-348.073	431.236	-60.846	-696.229	412.371	346.422	-398.401	851.298	268.472	-232.048	96.137	353.761	-199.743	65.533	-19.931	-596.597	5.869	329.640	-319.721	460.199	316.366	-206.574	86.560	212.223	-254.748	281.983	208.964	-401.551	38.276	199.033	-220.161	86.560	413.064	-202.045	86.560	145.276	-218.103	151.701	144.190	-267.038	70.465	140.880	-206.574	86.560	212.223	NaN	NaN	NaN	NaN	NaN	NaN	NaN	NaN	NaN	NaN	NaN	NaN	-653.484	1364.116	302.352	-738.955	1395.463	138.180	-642.128	1549.172	331.775	-486.732	1367.581	216.200	-319.736	1364.541	329.006	-208.600	1403.929	165.544	-300.156	1166.901	294.694	-486.732	1367.581	216.200	-486.732	1367.581	216.200	-485.979	1370.742	21.590	-292.264	1375.634	217.083	-478.666	1173.136	213.072	-803.915	1201.265	248.683	-664.487	1126.645	84.299	-903.718	1342.481	99.928	-653.484	1364.116	302.352	-998.253	1077.408	261.489	-930.508	954.333	99.200	-1092.170	1210.296	121.506	-817.519	1192.595	249.579	-1085.807	972.066	284.155	-1027.269	950.087	408.118	-995.341	884.337	225.881	-998.253	1077.408	261.489	-215.903	1175.851	294.572	-372.740	1114.869	155.813	-326.319	1085.032	459.287	-319.736	1364.541	329.006	-36.373	1025.409	331.970	-127.552	881.711	191.617	-148.047	933.555	498.562	-203.336	1165.320	297.190	39.728	926.713	379.475	10.788	964.386	504.103	145.370	1008.132	379.395	-36.373	1025.409	331.969	NaN	NaN	NaN	-485.976	1382.138	362.174	NaN	NaN	NaN	NaN	NaN	NaN	0.891	-6.781	2.987	-0.664	-16.155	4.734	0.000	0.000	-5.169	0.006	13.560	-5.317	15.404	7.508	-1.485	2.379	-8.850	1.006	-0.008	-0.180	-4.785	0.000	0.000	-4.785	-4.306	3.779	-7.481	4.306	-3.779	-7.481	6.697	-4.878	90.000	13.879	-3.870	90.000	NaN	NaN	NaN	NaN	NaN	NaN	6.623	-3.208	8.462	-6.623	3.208	8.462	-44.993	-137.377	-12.774	0.000	0.000	-22.278	-17.474	114.963	6.778	-26.351	-129.462	-8.375	-0.000	0.000	-27.855	-16.754	133.210	1.172	-2.375	-0.222	0.921	2.375	0.222	0.921	NaN	NaN	NaN	NaN	NaN	NaN	-396.516	860.842	283.105	-566.725	875.077	273.892
480	1.99583	-567.787	1651.727	221.021	-422.098	1659.840	220.245	-516.011	1539.645	340.989	-489.087	1423.160	352.911	-481.278	1215.150	394.109	-486.701	1367.739	209.108	-476.601	1150.744	161.119	-401.452	1354.350	390.004	-649.847	1420.168	310.979	-739.807	1270.448	309.657	-820.720	1203.408	289.982	-910.118	1138.123	285.843	-1010.444	1099.077	279.803	-982.743	1052.387	258.647	-1034.841	1022.479	291.959	-324.970	1419.273	338.599	-256.056	1265.317	344.250	-206.881	1172.591	339.615	-114.215	1091.345	340.313	-19.243	1041.263	339.098	-55.475	1011.380	339.575	-2.713	981.208	374.269	-607.654	950.070	194.664	-349.733	933.000	214.351	-543.880	991.697	381.586	-429.025	982.247	388.027	-490.257	967.715	398.487	-701.288	663.344	279.071	-679.650	494.725	326.175	-550.380	469.860	334.823	-724.265	266.507	351.383	-684.995	95.595	374.761	-605.061	99.551	347.146	-645.229	86.406	425.494	-662.832	71.044	219.251	-262.035	640.759	297.139	-262.419	493.927	308.873	-393.632	462.368	318.636	-185.094	267.711	355.372	-193.210	94.996	357.230	-277.040	97.401	349.783	-230.758	84.881	424.636	-216.696	65.729	217.641	-488.628	857.225	261.558	-476.543	832.905	82.145	-669.165	869.173	247.778	-474.967	1036.646	238.157	-614.945	488.036	323.613	-636.797	420.929	-52.976	-995.764	527.400	338.695	-578.897	863.199	254.668	-649.070	97.373	362.350	-768.824	73.117	12.239	-998.548	139.464	478.971	-616.958	464.997	325.897	-675.612	85.934	221.717	-652.290	285.084	219.726	-874.040	109.340	238.652	-658.559	85.934	421.510	-681.296	85.934	155.119	-673.522	152.317	154.455	-747.439	93.736	160.764	-675.612	85.934	221.717	-324.901	482.141	314.114	-346.785	431.384	-60.944	-696.181	412.104	345.255	-398.359	851.250	268.448	-232.041	96.110	353.781	-199.728	65.488	-19.876	-596.578	5.940	329.647	-319.614	460.160	316.372	-206.529	86.529	212.250	-254.655	281.964	208.980	-401.515	38.293	199.004	-220.173	86.529	413.086	-201.981	86.529	145.304	-218.023	151.674	144.214	-266.977	70.451	140.889	-206.529	86.529	212.250	NaN	NaN	NaN	NaN	NaN	NaN	NaN	NaN	NaN	NaN	NaN	NaN	-653.235	1363.978	302.027	-738.508	1395.233	138.107	-642.096	1548.715	331.457	-486.734	1367.625	216.107	-319.617	1364.347	329.087	-208.246	1403.531	165.488	-300.333	1166.465	294.820	-486.734	1367.625	216.107	-486.734	1367.625	216.107	-485.822	1370.772	21.560	-292.334	1375.801	217.151	-478.543	1173.248	213.001	-803.890	1201.049	249.234	-664.532	1125.306	85.307	-903.450	1341.573	99.666	-653.235	1363.978	302.027	-998.460	1077.566	262.733	-930.892	953.436	101.132	-1092.163	1209.824	121.963	-817.510	1192.405	250.179	-1086.369	972.313	285.585	-1028.042	950.588	409.901	-995.825	884.118	227.690	-998.460	1077.566	262.733	-216.043	1175.664	294.898	-372.928	1114.626	156.481	-326.302	1085.271	459.730	-319.617	1364.347	329.087	-36.556	1025.239	332.468	-127.870	881.314	192.459	-148.150	933.751	499.296	-203.479	1165.134	297.527	39.411	926.174	379.582	10.420	963.315	504.420	145.208	1007.484	379.960	-36.556	1025.239	332.468	NaN	NaN	NaN	-486.014	1382.050	362.053	-470.486	1536.445	338.837	NaN	NaN	NaN	0.886	-6.884	3.036	-0.683	-16.088	4.701	0.000	0.000	-5.197	0.006	13.548	-5.346	15.429	7.375	-1.444	2.351	-8.671	1.018	-0.008	-0.194	-4.785	0.000	0.000	-4.785	-4.318	3.829	-7.431	4.318	-3.829	-7.431	6.703	-4.878	90.000	13.864	-3.886	90.000	NaN	NaN	NaN	NaN	NaN	NaN	6.665	-3.209	8.411	-6.665	3.209	8.411	-45.070	-137.180	-12.519	-0.000	0.000	-22.293	-17.349	114.909	6.920	-26.249	-129.333	-8.342	0.000	-0.000	-27.887	-16.675	132.870	1.473	-2.413	-0.269	0.915	2.413	0.269	0.915	NaN	NaN	NaN	NaN	NaN	NaN	-396.432	860.972	283.265	-566.685	874.979	273.718
